<?xml version="1.0" encoding="UTF-8"?>
<svg width="222px" height="32px" viewBox="0 0 222 32" version="1.1" xmlns="http://www.w3.org/2000/svg" xmlns:xlink="http://www.w3.org/1999/xlink">
    <!-- Generator: Sketch 46.2 (44496) - http://www.bohemiancoding.com/sketch -->
    <title>credit_cards</title>
    <desc>Created with Sketch.</desc>
    <defs>
        <polygon id="path-1" points="31.4071186 4.36210586e-05 0 4.36210586e-05 0 10.1430448 31.4071186 10.1430448"></polygon>
        <radialGradient cx="50%" cy="51.9633407%" fx="50%" fy="51.9633407%" r="51.9633407%" id="radialGradient-3">
            <stop stop-color="#000000" offset="0%"></stop>
            <stop stop-color="#FFFFFF" offset="100%"></stop>
        </radialGradient>
        <polygon id="path-4" points="39.546313 0.11338408 39.546313 12.4652683 0 12.4652683 0 0.11338408"></polygon>
    </defs>
    <g id="Last" stroke="none" stroke-width="1" fill="none" fill-rule="evenodd">
        <g id="Desktop-HD-Copy-24" transform="translate(-1052.000000, -4012.000000)">
            <g id="credit_cards" transform="translate(1051.852845, 4011.082439)">
                <g id="visa" opacity="0.5" transform="translate(122.772814, 11.425673)">
                    <mask id="mask-2" fill="white">
                        <use xlink:href="#path-1"></use>
                    </mask>
                    <g id="Clip-2"></g>
                    <path d="M15.5507184,0.179413414 L13.4521093,9.9896441 L10.9139453,9.9896441 L13.0134268,0.179413414 L15.5507184,0.179413414 Z M26.2279903,6.51377274 L27.5641033,2.83011974 L28.3331426,6.51377274 L26.2279903,6.51377274 Z M29.0600148,9.9896441 L31.4071186,9.9896441 L29.3582375,0.179413414 L27.1921611,0.179413414 C26.7049139,0.179413414 26.2941489,0.462514085 26.1118129,0.898870075 L22.3038399,9.9896441 L24.9680687,9.9896441 L25.4976284,8.52412193 L28.7532134,8.52412193 L29.0600148,9.9896441 Z M22.4357209,6.78640436 C22.4470624,4.19763993 18.8555952,4.05456286 18.8803138,2.89787779 C18.888311,2.54614665 19.2231753,2.17216878 19.9567361,2.07620245 C20.3198087,2.0289463 21.3226569,1.99215921 22.4586946,2.5150303 L22.9047927,0.435032818 C22.2936616,0.213147033 21.5081918,-1.45403529e-05 20.530353,-1.45403529e-05 C18.0221422,-1.45403529e-05 16.2563617,1.33362663 16.2421122,3.24277496 C16.2253908,4.65566105 17.5021791,5.44302116 18.4643143,5.91281996 C19.4526221,6.39352403 19.7841421,6.70192491 19.7803616,7.13188314 C19.7730915,7.79041573 18.9918383,8.08064117 18.261331,8.09212805 C16.9855604,8.11190293 16.2448748,7.74723088 15.6548273,7.47227281 L15.1953522,9.62206398 C15.7877261,9.89411398 16.8824693,10.1314125 18.0174892,10.1430448 C20.6837538,10.1430448 22.4274329,8.82656127 22.4357209,6.78640436 L22.4357209,6.78640436 Z M11.9243544,0.179413414 L7.81248798,9.9896441 L5.13008368,9.9896441 L3.10650277,2.16039109 C2.98363679,1.67837839 2.877056,1.5014223 2.50365974,1.29872978 C1.89354653,0.967355137 0.886190887,0.656773199 -4.36210586e-05,0.46396812 L0.0597172293,0.179413414 L4.37834744,0.179413414 C4.92840899,0.179413414 5.42365341,0.545394096 5.54870044,1.17949889 L6.61741638,6.85648886 L9.25867148,0.179413414 L11.9243544,0.179413414 Z" id="Fill-1" fill="#FEFEFE" mask="url(#mask-2)"></path>
                </g>
                <g id="d" opacity="0.601505888" transform="translate(178.245913, 13.390260)">
                    <path d="M3.35844107,5.09007564 C3.79465102,4.70393284 4.05462463,4.08234931 4.05462463,3.46114129 C4.05462463,2.84093461 3.79465102,2.24050445 3.35844107,1.85285963 C2.94038046,1.47522824 2.44696881,1.32965803 1.63162546,1.32965803 L1.2927961,1.32965803 L1.2927961,5.60501616 L1.63162546,5.60501616 C2.44696881,5.60501616 2.95990665,5.44968286 3.35844107,5.09007564 Z M1.88458968,0.235065216 C3.92845544,0.235065216 5.35424238,1.56184439 5.35424238,3.47040371 C5.35424238,4.42205485 4.91753177,5.34278952 4.18116932,5.95348345 C3.56058714,6.46754779 2.85301331,6.69935864 1.87482659,6.69935864 L0.0311042098,6.69935864 L0.0311042098,0.235065216 L1.88458968,0.235065216 Z" id="Fill-9" fill="#FEFEFE"></path>
                    <polygon id="Fill-11" fill="#FEFEFE" points="5.93621028 6.69935864 7.19577432 6.69935864 7.19577432 0.234940048 5.93621028 0.234940048"></polygon>
                    <path d="M10.2795346,2.71470284 C9.52239425,2.43420169 9.29972065,2.24920362 9.29972065,1.90148734 C9.29972065,1.494066 9.69625239,1.18415041 10.2399815,1.18415041 C10.6179884,1.18415041 10.9282795,1.3391082 11.2588478,1.70635067 L11.9169803,0.845070715 C11.3742525,0.369057395 10.7248818,0.127107948 10.0166821,0.127107948 C8.87402481,0.127107948 8.00097908,0.922299276 8.00097908,1.97783972 C8.00097908,2.87041164 8.40777458,3.32552193 9.59073589,3.75309529 C10.0853992,3.92670309 10.3368614,4.04248335 10.4630306,4.12158943 C10.7151187,4.28643548 10.8416634,4.51824634 10.8416634,4.78961023 C10.8416634,5.313688 10.4244789,5.70083215 9.86147395,5.70083215 C9.26041795,5.70083215 8.77626872,5.40067965 8.48525348,4.83855085 L7.67203798,5.62460493 C8.25244128,6.47637212 8.95050236,6.8556307 9.91104041,6.8556307 C11.2195451,6.8556307 12.1400294,5.9820843 12.1400294,4.73203302 C12.1400294,3.704405 11.7145839,3.23878061 10.2795346,2.71470284" id="Fill-13" fill="#FEFEFE"></path>
                    <path d="M12.5372621,3.47035364 C12.5372621,5.3721539 14.0305145,6.84512912 15.9503389,6.84512912 C16.4930667,6.84512912 16.9583156,6.73798544 17.5308333,6.46749772 L17.5308333,4.98375807 C17.0260314,5.48830966 16.5800584,5.69133191 16.0079161,5.69133191 C14.7383387,5.69133191 13.836254,4.77022173 13.836254,3.46109122 C13.836254,2.22105337 14.7665014,1.24174014 15.9503389,1.24174014 C16.5503936,1.24174014 17.0067556,1.45490098 17.5308333,1.96858982 L17.5308333,0.48485017 C16.9782173,0.204599362 16.5218553,0.0891946073 15.9791275,0.0891946073 C14.0690662,0.0891946073 12.5372621,1.59195977 12.5372621,3.47035364" id="Fill-14" fill="#FEFEFE"></path>
                    <polygon id="Fill-15" fill="#FEFEFE" points="27.7472833 4.57736311 26.0217194 0.235040182 24.6451234 0.235040182 27.3894284 6.86455517 28.0674626 6.86455517 30.859707 0.235040182 29.4932496 0.235040182"></polygon>
                    <polygon id="Fill-16" fill="#FEFEFE" points="31.4327754 6.69935864 35.0093215 6.69935864 35.0093215 5.60501616 32.6928401 5.60501616 32.6928401 3.85904987 34.9207026 3.85904987 34.9207026 2.76445706 32.6928401 2.76445706 32.6928401 1.32965803 35.0093215 1.32965803 35.0093215 0.235065216 31.4327754 0.235065216"></polygon>
                    <path d="M37.4701714,3.21036751 L37.1033044,3.21036751 L37.1033044,1.25149071 L37.4903234,1.25149071 C38.2772537,1.25149071 38.7035754,1.58205899 38.7035754,2.21115259 C38.7035754,2.86027304 38.2772537,3.21036751 37.4701714,3.21036751 M40.0004394,2.14281095 C40.0004394,0.931812032 39.1679481,0.235002632 37.712997,0.235002632 L35.8418629,0.235002632 L35.8418629,6.69929606 L37.1033044,6.69929606 L37.1033044,4.10131224 L37.2684008,4.10131224 L39.0123644,6.69929606 L40.5634444,6.69929606 L38.5264629,3.97639473 C39.4778637,3.78188389 40.0004394,3.1321376 40.0004394,2.14281095" id="Fill-17" fill="#FEFEFE"></path>
                    <path d="M40.6520507,0.793914616 L40.6267668,0.793914616 L40.6267668,0.645841054 L40.6533024,0.645841054 C40.7203923,0.645841054 40.754438,0.670248784 40.754438,0.718563573 C40.754438,0.768630711 40.7190155,0.793914616 40.6520507,0.793914616 M40.8897444,0.716435719 C40.8897444,0.603158818 40.8140179,0.541701406 40.6753319,0.541701406 L40.491961,0.541701406 L40.491961,1.11108994 L40.6267668,1.11108994 L40.6267668,0.889668019 L40.7861055,1.11108994 L40.9550821,1.11108994 L40.7658283,0.875774388 C40.8455602,0.854621022 40.8897444,0.795792134 40.8897444,0.716435719" id="Fill-18" fill="#FEFEFE"></path>
                    <circle id="Oval-4" fill="url(#radialGradient-3)" cx="21.5288696" cy="3.67079743" r="3.18762412"></circle>
                </g>
                <g id="ae" opacity="0.669999957" transform="translate(4.060227, 10.536058)">
                    <path d="M27.1533931,1.94523005 L26.0828758,1.94523005 L25.9612148,1.94971754 L25.8659802,1.95968976 L25.7881969,1.97514669 L25.7273664,1.99359529 L25.6809956,2.01304111 L25.6450956,2.03298554 L25.6206637,2.05193274 L25.6057054,2.06738968 L25.6022151,2.07087995 L25.5917443,2.08833133 L25.5757887,2.12522852 L25.5593346,2.18556042 L25.5413846,2.27032424 L25.5279221,2.37652833 L25.5189471,2.50367407 L25.5154568,2.64777257 L25.5204429,2.84671825 L25.5349026,3.01724312 L25.5573401,3.15785135 L25.5847637,3.26904154 L25.6146804,3.34832065 L25.6391123,3.39668589 L25.6555664,3.41962198 L25.6685303,3.43258586 L25.6854831,3.44106224 L25.7183914,3.45352751 L25.7667566,3.46848583 L25.8295816,3.48194832 L25.9078635,3.49241915 L26.0006051,3.49890109 L26.1152855,3.50139414 L26.4917366,3.50139414 L27.1533931,1.94523005 Z M12.775454,11.0413856 L13.1339551,10.6031068 L12.775454,10.1573488 L12.775454,11.0413856 Z M35.7519352,11.373959 L35.7544282,11.4078645 L35.8112698,11.4073659 L35.7519352,11.373959 Z M31.2090928,11.4088617 L31.432969,11.4073659 L31.2699233,11.3156215 L31.1258248,11.2099161 L31.0375707,11.1301383 L30.9647735,11.0558453 L30.8959652,10.9760676 L30.8326417,10.8942955 L30.7767973,10.8120247 L30.7767973,11.3420479 L31.2090928,11.3420479 L31.2090928,11.4088617 Z" id="Fill-1" fill="#FEFEFE"></path>
                    <g id="Group-4" transform="translate(0.000000, 0.385177)">
                        <mask id="mask-5" fill="white">
                            <use xlink:href="#path-4"></use>
                        </mask>
                        <g id="Clip-3"></g>
                        <path d="M18.0335535,2.06743954 L19.580244,2.06743954 C19.8385243,2.06743954 20.0205173,2.03552845 20.1292144,1.97021044 C20.2937559,1.8704883 20.3765253,1.69996343 20.3765253,1.45813722 C20.3770239,1.18838882 20.2523713,1.01537089 20.0050603,0.939582063 C19.9183021,0.914152915 19.7771952,0.900690426 19.5797454,0.900690426 L18.0335535,0.900690426 L18.0335535,2.06743954 Z M-0.000199444293,4.53556266 L1.88006162,0.11338408 L2.99345939,0.11338408 L4.87222463,4.53556266 L3.73788521,4.53556266 L3.3006036,3.51191483 L1.57391464,3.51191483 L1.13413997,4.53556266 L-0.000199444293,4.53556266 Z M2.43800703,1.17592355 L1.79031169,2.72510709 L3.08320932,2.72510709 L2.43800703,1.17592355 Z M17.8346078,10.1334653 L19.2621303,10.1334653 C19.5169204,10.1334653 19.6964203,10.0965681 19.8001313,10.0227738 C19.954202,9.9130794 20.0304895,9.72211149 20.0304895,9.44987003 C20.0304895,9.1512022 19.9138146,8.95973568 19.6799661,8.87547047 C19.5971968,8.84605243 19.4640677,8.8305955 19.2840692,8.8305955 L17.8346078,8.8305955 L17.8346078,10.1334653 Z M16.7890211,8.48256521 L15.3335764,10.2306944 L16.7890211,12.0167181 L16.7890211,8.48256521 Z M22.9229303,10.784651 L22.9229303,12.4654677 L21.9361797,12.4654677 L21.9361797,8.04328916 L24.2013682,8.04328916 C24.8515566,8.04328916 25.305791,8.12206965 25.5625755,8.27963064 C25.7385851,8.38533612 25.8722128,8.52544573 25.9689433,8.69896227 C26.0646766,8.87397464 26.114039,9.06494255 26.114039,9.27386044 C26.114039,9.69568512 26.0018516,10.0192835 25.7779754,10.2471486 C25.6393616,10.3852638 25.4563715,10.4904706 25.2265119,10.5647636 C25.4095021,10.6226025 25.5456228,10.6864246 25.6383644,10.7562301 C25.7321032,10.8245398 25.8148726,10.9262564 25.8901628,11.0603827 C25.9460072,11.1640937 25.9863947,11.2648131 26.0113252,11.3630394 C26.0342613,11.4612657 26.0542057,11.6068601 26.0701613,11.7988252 C26.0965876,12.1164402 26.1349807,12.3388206 26.1828473,12.4654677 L25.0744356,12.4654677 C25.0400315,12.3617567 25.006126,12.1528388 24.9722204,11.8377168 C24.9447968,11.5784392 24.895933,11.3794936 24.8241331,11.2423756 C24.7533303,11.1052577 24.6441346,10.9980564 24.4990389,10.9207717 C24.3200376,10.8275315 24.0592642,10.7826565 23.7177158,10.784651 L22.9229303,10.784651 Z M22.9229303,9.99734461 L24.3085696,9.99734461 C24.5414208,9.99734461 24.7044665,9.96493492 24.8016956,9.90011552 C24.949783,9.80039337 25.0235773,9.6298685 25.0235773,9.3880423 C25.0235773,9.11779528 24.9113899,8.94577458 24.6905054,8.86898853 C24.6122235,8.84405799 24.486075,8.8305955 24.3085696,8.8305955 L22.9229303,8.8305955 L22.9229303,9.99734461 Z M35.729747,12.4654677 L35.729747,11.6781614 L37.681808,11.6781614 C37.9959327,11.6781614 38.204352,11.6462503 38.3090603,11.5814309 C38.4601393,11.4881907 38.5349309,11.3490783 38.5349309,11.1630965 C38.5349309,10.9496911 38.4471755,10.7926287 38.2721631,10.6929066 C38.1714437,10.6365636 38.0103925,10.60914 37.7910037,10.60914 L36.9987113,10.60914 C36.5145603,10.60914 36.1660314,10.5183928 35.9521274,10.3368985 C35.8184997,10.2217194 35.7147887,10.0776209 35.6389998,9.90460302 C35.5642082,9.73058787 35.5258152,9.54460607 35.5258152,9.34815344 C35.5263138,9.03751896 35.6135707,8.75281223 35.7890817,8.4960277 C35.9601051,8.24871678 36.2353383,8.10362105 36.6127866,8.06323359 C36.7399323,8.04927249 36.9309002,8.04328916 37.1826986,8.04328916 L39.3052845,8.04328916 L39.3052845,8.8305955 L37.3911179,8.8305955 C37.1039182,8.83258994 36.9129502,8.84605243 36.8202086,8.86898853 C36.6272463,8.9188496 36.5310144,9.06943004 36.5310144,9.31923402 C36.5310144,9.53014636 36.6112907,9.67324764 36.7728406,9.74754064 C36.8815378,9.79740171 37.0610376,9.82133503 37.3123374,9.82133503 L37.9979272,9.82133503 C38.3484505,9.82133503 38.611717,9.8527475 38.7847349,9.91557245 C39.0878903,10.0217765 39.2963095,10.2072597 39.408497,10.4730193 C39.5002413,10.6864246 39.5466121,10.915287 39.5466121,11.1591076 C39.5466121,11.4273602 39.4862802,11.6681892 39.3676109,11.8825918 C39.2005763,12.1852485 38.9487779,12.365247 38.6127142,12.424083 C38.4491699,12.4515066 38.2053493,12.4654677 37.8792578,12.4654677 L35.729747,12.4654677 Z M12.4511077,8.38533612 L12.4511077,8.87198019 L9.72520288,8.87198019 L9.72520288,9.7644934 L12.1035761,9.7644934 L12.1035761,10.6046525 L9.72520288,10.6046525 L9.72520288,11.6128434 L12.5373674,11.6128434 L12.796645,11.6233142 L13.9354719,10.2306944 L12.4511077,8.38533612 Z M8.68011478,8.04428638 L12.1758746,8.04428638 L12.1743788,8.04328916 L13.5694916,8.04328916 L14.6255491,9.49673944 L15.7728524,8.04328916 L16.7890211,8.04328916 L17.1545028,8.04328916 L19.244679,8.04328916 C19.6919328,8.04328916 20.0125395,8.07071275 20.2069977,8.12705576 C20.5300974,8.22478346 20.7843889,8.42672081 20.9718665,8.73336641 C21.1104803,8.95973568 21.1807844,9.20953966 21.1807844,9.48178112 C21.1807844,9.70615595 21.1349122,9.91956134 21.0436665,10.1200029 C20.9519221,10.320943 20.825275,10.4864817 20.6612321,10.6166191 C20.5181308,10.730801 20.3620656,10.8100801 20.1960282,10.8544565 C20.0304895,10.8988328 19.8046188,10.9207717 19.5184163,10.9207717 L17.8346078,10.9207717 L17.8346078,12.4654677 L17.1545028,12.4654677 L16.7890211,12.4654677 L15.8077552,12.4654677 L14.6255491,10.9496911 L13.4717639,12.4654677 L12.5373674,12.4654677 L12.1085622,12.4654677 L8.68011478,12.4654677 L8.68011478,8.04428638 Z M26.735308,8.04428638 L30.5063009,8.04428638 L30.5063009,8.87198019 L27.7808947,8.87198019 L27.7808947,9.7644934 L30.1597665,9.7644934 L30.1597665,10.6046525 L27.7808947,10.6046525 L27.7808947,11.6128434 L30.5930592,11.6128434 L30.5930592,12.4654677 L26.735308,12.4654677 L26.735308,8.04428638 Z M31.3379836,12.4654677 L31.3379836,11.6781614 L33.2900447,11.6781614 C33.6041694,11.6781614 33.8120901,11.6462503 33.9167984,11.5814309 C34.0688746,11.4881907 34.1431676,11.3490783 34.1431676,11.1630965 C34.1431676,10.9496911 34.0549135,10.7926287 33.8799012,10.6929066 C33.7796804,10.6365636 33.6181305,10.60914 33.3992404,10.60914 L32.6074466,10.60914 C32.1227969,10.60914 31.7737694,10.5183928 31.5598654,10.3368985 C31.4262377,10.2217194 31.3225267,10.0776209 31.2467379,9.90460302 C31.1714477,9.73058787 31.1340519,9.54460607 31.1340519,9.34815344 C31.1345505,9.03751896 31.222306,8.75281223 31.3973183,8.4960277 C31.5683418,8.24871678 31.8435749,8.10362105 32.2210233,8.06323359 C32.3486676,8.04927249 32.5386383,8.04328916 32.7909353,8.04328916 L34.9135212,8.04328916 L34.9135212,8.8305955 L32.998856,8.8305955 C32.7126534,8.83258994 32.5211869,8.84605243 32.4284453,8.86898853 C32.2364802,8.9188496 32.1392511,9.06943004 32.1392511,9.31923402 C32.1397497,9.53014636 32.220026,9.67324764 32.3815759,9.74754064 C32.4892758,9.79740171 32.6687757,9.82133503 32.9200755,9.82133503 L33.6061639,9.82133503 C33.9571858,9.82133503 34.2199537,9.8527475 34.3929716,9.91557245 C34.6961269,10.0217765 34.9040476,10.2072597 35.0167336,10.4730193 C35.1089766,10.6864246 35.1553474,10.915287 35.1553474,11.1591076 C35.1553474,11.4273602 35.0945169,11.6681892 34.9758475,11.8825918 C34.8098102,12.1852485 34.5570145,12.365247 34.2214495,12.424083 C34.0579052,12.4515066 33.8130873,12.4654677 33.4869959,12.4654677 L31.3379836,12.4654677 Z M11.4214766,2.58400026 L10.3110705,2.58400026 L10.3110705,1.21481519 L9.72221121,2.58400026 L8.69607033,2.58400026 L9.72221121,0.11338408 L11.4214766,0.11338408 L11.4214766,2.58400026 Z M16.0076981,2.58400026 L12.5837382,2.58400026 L12.5837382,0.114381302 L16.3552298,0.114381302 L16.3552298,0.942075116 L13.6293249,0.942075116 L13.6293249,1.83508694 L16.0076981,1.83508694 L16.0076981,2.58400026 Z M20.7579625,2.58400026 L16.9346154,2.58400026 L16.9346154,0.11338408 L19.4590816,0.11338408 C20.183563,0.11338408 20.6911487,0.191665965 20.9778499,0.349725567 C21.1728067,0.455929653 21.3233871,0.595042047 21.431087,0.769057192 C21.5377897,0.943570949 21.5921383,1.13553608 21.5921383,1.34445398 C21.5921383,1.76578004 21.466987,2.08937841 21.217183,2.31724351 C21.095522,2.42643926 20.9429471,2.51519197 20.7579625,2.58400026 L20.7579625,2.58400026 Z M22.2916891,2.58400026 L23.2555037,2.58400026 L23.2555037,0.11338408 L22.2916891,0.11338408 L22.2916891,2.58400026 Z M24.8949358,2.58400026 L23.8224241,2.58400026 C23.817438,2.50372393 23.8154435,2.42145316 23.8154435,2.33668933 C23.8159422,1.74234534 23.9346115,1.2571971 24.1719502,0.884236271 C24.3419765,0.616482309 24.5708388,0.420528291 24.8585372,0.297870051 C25.1447398,0.175211811 25.517202,0.11338408 25.9729322,0.11338408 L27.5106477,0.11338408 L27.5106477,0.900690426 L26.0841224,0.900690426 C25.6513283,0.900690426 25.3342118,1.01387506 25.1322745,1.23824989 C24.9652399,1.42373308 24.8824705,1.75979672 24.8824705,2.24893384 C24.8824705,2.36810181 24.8864594,2.47979061 24.8949358,2.58400026 L24.8949358,2.58400026 Z M30.6389314,2.58400026 L29.6202697,2.58400026 L29.0334048,1.17592355 L28.4450442,2.58400026 L27.4253852,2.58400026 L28.475958,0.11338408 L29.5888572,0.11338408 L30.6389314,2.58400026 Z M34.5689812,2.58400026 L33.6370777,2.58400026 L32.8996325,1.29209985 L32.8996325,2.58400026 L31.9786984,2.58400026 L31.9786984,0.11338408 L33.2157517,0.11338408 L34.5689812,2.58400026 Z M35.0202239,2.58400026 L35.9426538,2.58400026 L35.9426538,0.11338408 L35.0202239,0.11338408 L35.0202239,2.58400026 Z M33.6370777,2.58400026 L34.5689812,2.58400026 L35.0202239,3.40770518 L35.0202239,2.58400026 L35.9426538,2.58400026 L35.9426538,4.53556266 L34.7509741,4.53556266 L33.6370777,2.58400026 Z M31.9786984,4.53606127 L32.8996325,4.53606127 L32.8996325,2.58400026 L31.9786984,2.58400026 L31.9786984,4.53606127 Z M23.8224241,2.58400026 L24.8949358,2.58400026 C24.9333288,3.04970268 25.0594773,3.36731772 25.2713869,3.53485092 C25.4533798,3.67745359 25.7360921,3.74875492 26.1190251,3.74875492 L26.9307634,3.74875492 L27.4253852,2.58400026 L28.4450442,2.58400026 L28.3862081,2.72510709 L29.6786071,2.72510709 L29.6202697,2.58400026 L30.6389314,2.58400026 L31.4681211,4.53556266 L30.333283,4.53556266 L29.8960014,3.51191483 L28.1693124,3.51191483 L27.7295378,4.53556266 L27.5106477,4.53556266 L26.595697,4.53556266 L25.92706,4.53556266 C25.6258991,4.53556266 25.3955409,4.52060434 25.2354869,4.49068769 C24.6790373,4.38448361 24.2831404,4.08132828 24.0482948,3.5802245 C23.918656,3.30249832 23.8438644,2.97042357 23.8224241,2.58400026 L23.8224241,2.58400026 Z M22.2921878,4.53606127 L23.2560023,4.53606127 L23.2560023,2.58400026 L22.2921878,2.58400026 L22.2921878,4.53606127 Z M16.9346154,2.58400026 L20.7579625,2.58400026 C20.7086001,2.60244885 20.6567446,2.61890301 20.6028946,2.63485855 C20.8058292,2.69219878 20.958404,2.75651957 21.0616165,2.82682368 C21.1653275,2.89463474 21.2585677,2.99635133 21.3423343,3.13047762 C21.4051593,3.23369004 21.4495356,3.33490802 21.4769592,3.43363294 C21.5033856,3.53185926 21.5253245,3.67695498 21.543773,3.86941872 C21.5731911,4.18603654 21.615573,4.40891553 21.6684257,4.53556266 L20.4338656,4.53556266 C20.3944753,4.43185163 20.3570795,4.22343234 20.3191851,3.90781175 C20.2882712,3.64903278 20.2344213,3.4500871 20.1536463,3.31296915 C20.0748658,3.17585119 19.9532048,3.06864989 19.7916549,2.99086661 C19.5927093,2.89812502 19.3015206,2.85325005 18.9210806,2.85474588 L18.0335535,2.85474588 L18.0335535,4.53556266 L16.9346154,4.53556266 L16.9346154,2.58400026 Z M12.5837382,2.58400026 L16.0076981,2.58400026 L16.0076981,2.67474741 L13.6293249,2.67474741 L13.6293249,3.68293831 L16.4414894,3.68293831 L16.4414894,4.53556266 L12.5837382,4.53556266 L12.5837382,2.58400026 Z M10.3110705,4.53606127 L11.4214766,4.53606127 L11.4214766,2.58400026 L10.3110705,2.58400026 L10.3110705,4.53606127 Z M8.69607033,2.58400026 L9.72221121,2.58400026 L8.88205213,4.53556266 L7.68339193,4.53556266 L6.33415129,1.21481519 L6.33415129,4.53556266 L5.22474241,4.53556266 L5.22474241,0.11338408 L6.92699945,0.11338408 L8.28920397,3.56377034 L8.69607033,2.58400026 Z" id="Fill-2" fill="#FEFEFE" mask="url(#mask-5)"></path>
                    </g>
                </g>
                <g id="mc" transform="translate(61.646973, 9.072070)">
                    <path d="M25.455702,0.209957441 C23.6248731,0.209957441 21.9424842,0.841509422 20.6109341,1.89654556 C22.416778,3.32719556 23.5767929,5.53783746 23.5767929,8.02079415 C23.5767929,10.5037508 22.416778,12.7143927 20.6109341,14.1450427 C21.9424842,15.1998689 23.6248731,15.8314209 25.455702,15.8314209 C29.7694876,15.8314209 33.2665387,12.3345797 33.2665387,8.02079415 C33.2665387,3.70700857 29.7694876,0.209957441 25.455702,0.209957441" id="Fill-1" fill="#AFAEAE" opacity="0.5"></path>
                    <path d="M17.6449283,8.02075216 C17.6449283,5.53779547 18.8049432,3.32715357 20.6107871,1.89650357 C19.279237,0.841677388 17.596848,0.209915449 15.7660192,0.209915449 C11.4522336,0.209915449 7.95518245,3.70696658 7.95518245,8.02075216 C7.95518245,12.3345377 11.4522336,15.8315889 15.7660192,15.8315889 C17.596848,15.8315889 19.279237,15.1998269 20.6107871,14.1450007 C18.8049432,12.7143507 17.6449283,10.5037089 17.6449283,8.02075216" id="Fill-4" fill="#666666" opacity="0.5"></path>
                    <path d="M17.6449283,8.02075216 C17.6449283,10.5037089 18.8049432,12.7143507 20.6107871,14.1450007 C22.416841,12.7143507 23.5768559,10.5037089 23.5768559,8.02075216 C23.5768559,5.53779547 22.416841,3.32715357 20.6107871,1.89650357 C18.8049432,3.32715357 17.6449283,5.53779547 17.6449283,8.02075216" id="Fill-7" fill="#969696" opacity="0.5"></path>
                    <path d="M5.41623011,6.80577044 C5.28794611,6.67706653 5.13551701,6.57691683 4.9589428,6.5055313 C4.78257855,6.43414577 4.58941771,6.39845301 4.37967022,6.39845301 C4.26860274,6.39845301 4.15312614,6.40790109 4.0334504,6.42700722 C3.91377466,6.44611335 3.79661841,6.48012645 3.68177169,6.52841666 C3.56692497,6.57691683 3.4577471,6.64389325 3.35402812,6.72934593 C3.25051911,6.81479861 3.16023741,6.92250678 3.0838129,7.05247043 C2.96035792,6.84860176 2.7932318,6.68840423 2.58222457,6.57250772 C2.37121734,6.45640126 2.12997624,6.39845301 1.85850127,6.39845301 C1.76716979,6.39845301 1.67268894,6.40664135 1.57526869,6.42322798 C1.47763848,6.43981462 1.3808481,6.46857879 1.28468759,6.50931053 C1.18831712,6.55004228 1.09635576,6.605681 1.00880351,6.67559683 C0.921251258,6.74593257 0.841677388,6.83453461 0.770081901,6.94161291 L0.770081901,6.49398364 L-4.19914881e-05,6.49398364 L-4.19914881e-05,10.1585808 L0.777430412,10.1585808 L0.777430412,8.12745253 C0.777430412,7.97187407 0.801995432,7.83351211 0.851545388,7.71236667 C0.900885387,7.59122123 0.966812023,7.48981178 1.04953525,7.40813834 C1.13225849,7.32667485 1.22904887,7.26473741 1.34011635,7.22274592 C1.45118384,7.18054447 1.56959984,7.15954873 1.6955743,7.15954873 C1.95718127,7.15954873 2.16021012,7.24248192 2.30466084,7.40813834 C2.4489016,7.57400472 2.52112696,7.81125662 2.52112696,8.11968411 L2.52112696,10.1585808 L3.29859936,10.1585808 L3.29859936,8.12745253 C3.29859936,7.97187407 3.32316438,7.83351211 3.37271434,7.71236667 C3.42205433,7.59122123 3.48798097,7.48981178 3.5707042,7.40813834 C3.65342743,7.32667485 3.75021781,7.26473741 3.8612853,7.22274592 C3.97235279,7.18054447 4.09076878,7.15954873 4.21674325,7.15954873 C4.47835022,7.15954873 4.68137906,7.24248192 4.82582978,7.40813834 C4.97007055,7.57400472 5.04229591,7.81125662 5.04229591,8.11968411 L5.04229591,10.1585808 L5.81976831,10.1585808 L5.81976831,7.8557676 C5.81976831,7.64161101 5.78449546,7.44530081 5.71415972,7.26662702 C5.64382397,7.0881632 5.5445141,6.93468431 5.41623011,6.80577044" id="Fill-9" fill="#FEFEFE" opacity="0.699999988"></path>
                    <path d="M9.48562522,8.79297563 C9.43208608,8.93574669 9.35671135,9.05941162 9.25992097,9.16397042 C9.16292064,9.26852923 9.04702413,9.35083255 8.91181154,9.41067042 C8.77659895,9.47071824 8.62626942,9.5005322 8.46040304,9.5005322 C8.28697819,9.5005322 8.1320296,9.4694585 7.99576722,9.40689118 C7.85929489,9.34453382 7.74381829,9.26034089 7.6495474,9.15452234 C7.55506656,9.04870379 7.48242128,8.92440898 7.43140162,8.78142797 C7.38038196,8.63865691 7.35497711,8.48706764 7.35497711,8.32624024 C7.35497711,8.16562279 7.38038196,8.01403352 7.43140162,7.8710525 C7.48242128,7.72828144 7.55506656,7.60398664 7.6495474,7.49816809 C7.74381829,7.39234954 7.85929489,7.30815661 7.99576722,7.24558929 C8.1320296,7.18323193 8.28697819,7.15194827 8.46040304,7.15194827 C8.62626942,7.15194827 8.77659895,7.18197218 8.91181154,7.24181005 C9.04702413,7.30185788 9.16292064,7.38395124 9.25992097,7.48851005 C9.35671135,7.59327881 9.43208608,7.71673379 9.48562522,7.8597148 C9.53916437,8.00248586 9.56603892,8.15806433 9.56603892,8.32624024 C9.56603892,8.4946261 9.53916437,8.65020457 9.48562522,8.79297563 L9.48562522,8.79297563 Z M9.51627901,6.93779168 C9.38862489,6.77465475 9.23052693,6.64385126 9.04198515,6.54559118 C8.85323341,6.44754106 8.62752916,6.39841101 8.3648724,6.39841101 C8.10725462,6.39841101 7.86748323,6.44628131 7.64576817,6.54181195 C7.42384316,6.63734258 7.23005244,6.77066556 7.06418606,6.94157091 C6.89852964,7.11247627 6.76835603,7.31592503 6.67408513,7.55170724 C6.57960429,7.78748944 6.53257382,8.04573709 6.53257382,8.32624024 C6.53257382,8.60695333 6.57960429,8.86499103 6.67408513,9.10098319 C6.76835603,9.3367654 6.89852964,9.54021416 7.06418606,9.71111951 C7.23005244,9.88181491 7.42384316,10.0151379 7.64576817,10.1108785 C7.86748323,10.2064091 8.10725462,10.2542794 8.3648724,10.2542794 C8.62752916,10.2542794 8.85323341,10.2057792 9.04198515,10.1087789 C9.23052693,10.0119885 9.38862489,9.88181491 9.51627901,9.71867798 L9.51627901,10.1585388 L10.3157969,10.1585388 L10.3157969,6.49394165 L9.51627901,6.49394165 L9.51627901,6.93779168 Z" id="Fill-12" fill="#FEFEFE" opacity="0.699999988"></path>
                    <path d="M13.990661,8.32055039 C13.7662165,8.1458658 13.4537999,8.02933942 13.053411,7.97055134 L12.6748578,7.91323295 C12.5906648,7.90042555 12.5115109,7.88572853 12.4376058,7.86914189 C12.3637008,7.85255525 12.2998738,7.83029976 12.2463346,7.80216547 C12.1927955,7.77424113 12.1499642,7.73854836 12.1182606,7.69508717 C12.086347,7.65183594 12.0703903,7.59829679 12.0703903,7.53446973 C12.0703903,7.40450607 12.130858,7.2993174 12.2520035,7.2189037 C12.3731489,7.13849 12.5434244,7.09838813 12.7628299,7.09838813 C12.8774667,7.09838813 12.9902138,7.10867604 13.1012813,7.12904191 C13.2121388,7.14940778 13.3173275,7.17481263 13.4168473,7.20546642 C13.5163672,7.23612021 13.6068588,7.26992336 13.6885323,7.30687586 C13.7699958,7.34382837 13.8388618,7.37889127 13.8949204,7.41206454 L14.2392506,6.78849094 C14.0479794,6.66608576 13.8247947,6.57118499 13.5699063,6.5035787 C13.314808,6.4359724 13.0433331,6.40216925 12.7550615,6.40216925 C12.5203291,6.40216925 12.3099517,6.42967368 12.1239294,6.48447257 C11.9376972,6.53927146 11.7789694,6.61695571 11.647746,6.71773529 C11.5163126,6.81851486 11.415533,6.94154992 11.3454072,7.08684047 C11.2752815,7.23234097 11.2402186,7.3954779 11.2402186,7.57646122 C11.2402186,7.87250121 11.3454072,8.11143278 11.5557846,8.29388579 C11.7661619,8.47612885 12.0754293,8.59538468 12.4833766,8.65144332 L12.865919,8.70120323 C13.0853245,8.73185702 13.245942,8.78098706 13.3479813,8.84838339 C13.4500206,8.91598969 13.5010403,9.00207224 13.5010403,9.10663105 C13.5010403,9.24436313 13.4309145,9.35333104 13.2906629,9.43374474 C13.1504114,9.51394848 12.9425535,9.55426031 12.6670893,9.55426031 C12.5165498,9.55426031 12.3821771,9.5439724 12.2635511,9.52360652 C12.1449252,9.50324065 12.0365871,9.47573623 11.9383271,9.44130321 C11.8402769,9.40687019 11.7523048,9.36739819 11.6744105,9.32267725 C11.5967263,9.27816628 11.5247109,9.23029598 11.4583643,9.17927632 L11.0873695,9.77996456 C11.2198527,9.87927443 11.3588445,9.95968813 11.504345,10.0207857 C11.6496356,10.0820933 11.7924066,10.1299636 11.9326582,10.1643966 C12.0729098,10.1988297 12.2056029,10.221715 12.3305275,10.2332627 C12.4554522,10.2446004 12.56505,10.2504792 12.6595309,10.2504792 C12.9221876,10.2504792 13.15734,10.2210851 13.3651978,10.162507 C13.5730557,10.1037189 13.7477403,10.0216256 13.8892516,9.91559707 C14.0307629,9.80998847 14.1391009,9.68359409 14.2144757,9.5370438 C14.2896404,9.39028355 14.3272228,9.22903623 14.3272228,9.0530919 C14.3272228,8.73941548 14.2151055,8.49523498 13.990661,8.32055039" id="Fill-14" fill="#FEFEFE" opacity="0.699999988"></path>
                    <path d="M19.2403109,8.01262681 C19.2606768,7.88014366 19.2963695,7.75815839 19.3473892,7.64730086 C19.3984089,7.53644333 19.4641255,7.44070274 19.5445392,7.360499 C19.624743,7.2800853 19.7204836,7.21835781 19.8313411,7.17489662 C19.9421986,7.13164538 20.0690129,7.10980981 20.2119939,7.10980981 C20.4668823,7.10980981 20.6747401,7.18896377 20.8355675,7.34706172 C20.996185,7.50515967 21.0980143,7.72708469 21.1414755,8.01262681 L19.2403109,8.01262681 Z M21.4761477,6.93197586 C21.3243485,6.76233025 21.1421054,6.63110685 20.9292086,6.5380957 C20.7163117,6.4448746 20.4822092,6.39826404 20.2273208,6.39826404 C19.9568957,6.39826404 19.7101957,6.4448746 19.4872209,6.5380957 C19.2638261,6.63110685 19.072135,6.76233025 18.9113076,6.93197586 C18.7506902,7.10162147 18.6257655,7.30486027 18.5365336,7.54211218 C18.4473017,7.77936409 18.4025807,8.0407611 18.4025807,8.32630322 C18.4025807,8.61709428 18.4485614,8.88101078 18.5403128,9.11826269 C18.6322742,9.35530464 18.7607681,9.55812353 18.9266345,9.72629944 C19.0925009,9.8946853 19.2900708,10.0248589 19.5195543,10.1164004 C19.7490378,10.2083617 20.0016166,10.2541324 20.2770807,10.2541324 C20.5548544,10.2541324 20.8196108,10.2159202 21.0707199,10.1394957 C21.321829,10.0628612 21.5597108,9.92911833 21.7841553,9.7378471 L21.3862859,9.16781265 C21.2332269,9.29021783 21.0642112,9.38532855 20.8794486,9.45272489 C20.6944761,9.52054115 20.5103435,9.55413434 20.3266307,9.55413434 C20.196667,9.55413434 20.0717424,9.53649791 19.9518567,9.50059519 C19.831971,9.46490242 19.7236329,9.40947366 19.6266326,9.3343089 C19.5298422,9.25914413 19.446909,9.16277367 19.378043,9.04540746 C19.3091769,8.92825121 19.2619365,8.78652993 19.2365317,8.62087351 L21.9447727,8.62087351 C21.9498117,8.57489283 21.9538009,8.52660262 21.9563204,8.47558296 C21.9588398,8.4245633 21.9600996,8.37354365 21.9600996,8.32252399 C21.9600996,8.03698187 21.9174782,7.77621473 21.8318156,7.54022256 C21.7465729,7.30444036 21.6279469,7.10162147 21.4761477,6.93197586 L21.4761477,6.93197586 Z" id="Fill-16" fill="#FEFEFE" opacity="0.699999988"></path>
                    <path d="M32.0673038,8.79297563 C32.0137647,8.93574669 31.93839,9.05941162 31.8415996,9.16397042 C31.7445992,9.26852923 31.6287027,9.35083255 31.4934901,9.41067042 C31.3582775,9.47071824 31.207948,9.5005322 31.0420816,9.5005322 C30.8686568,9.5005322 30.7137082,9.4694585 30.5772359,9.40689118 C30.4409735,9.34453382 30.3254969,9.26034089 30.231226,9.15452234 C30.1367452,9.04870379 30.0640999,8.92440898 30.0130802,8.78142797 C29.9620606,8.63865691 29.9366557,8.48706764 29.9366557,8.32624024 C29.9366557,8.16562279 29.9620606,8.01403352 30.0130802,7.8710525 C30.0640999,7.72828144 30.1367452,7.60398664 30.231226,7.49816809 C30.3254969,7.39234954 30.4409735,7.30815661 30.5772359,7.24558929 C30.7137082,7.18323193 30.8686568,7.15194827 31.0420816,7.15194827 C31.207948,7.15194827 31.3582775,7.18197218 31.4934901,7.24181005 C31.6287027,7.30185788 31.7445992,7.38395124 31.8415996,7.48851005 C31.93839,7.59327881 32.0137647,7.71673379 32.0673038,7.8597148 C32.120843,8.00248586 32.1475076,8.15806433 32.1475076,8.32624024 C32.1475076,8.4946261 32.120843,8.65020457 32.0673038,8.79297563 L32.0673038,8.79297563 Z M32.0977476,6.93779168 C31.9703035,6.77465475 31.8122055,6.64385126 31.6234538,6.54559118 C31.434912,6.44754106 31.2089978,6.39841101 30.946551,6.39841101 C30.6889332,6.39841101 30.4491618,6.44628131 30.2272368,6.54181195 C30.0055218,6.63734258 29.811731,6.77066556 29.6458647,6.94157091 C29.4799983,7.11247627 29.3500346,7.31592503 29.2557637,7.55170724 C29.1612829,7.78748944 29.1140425,8.04573709 29.1140425,8.32624024 C29.1140425,8.60695333 29.1612829,8.86499103 29.2557637,9.10098319 C29.3500346,9.3367654 29.4799983,9.54021416 29.6458647,9.71111951 C29.811731,9.88181491 30.0055218,10.0151379 30.2272368,10.1108785 C30.4491618,10.2064091 30.6889332,10.2542794 30.946551,10.2542794 C31.2089978,10.2542794 31.434912,10.2057792 31.6234538,10.1087789 C31.8122055,10.0119885 31.9703035,9.88181491 32.0977476,9.71867798 L32.0977476,10.1585388 L32.8974755,10.1585388 L32.8974755,6.49394165 L32.0977476,6.49394165 L32.0977476,6.93779168 Z" id="Fill-18" fill="#FEFEFE" opacity="0.699999988"></path>
                    <path d="M17.4187621,9.42797091 C17.2898483,9.47647108 17.163034,9.50061618 17.0381093,9.50061618 C16.9564359,9.50061618 16.8806412,9.48801874 16.8105154,9.46240393 C16.7403897,9.43699908 16.6790821,9.39689721 16.6270126,9.34188836 C16.5747332,9.28708947 16.5331617,9.21633381 16.5025079,9.12962139 C16.472064,9.04290896 16.4567371,8.93835016 16.4567371,8.81594497 L16.4567371,7.22089829 L17.7406269,7.22089829 L17.7406269,6.49402563 L16.4567371,6.49402563 L16.4567371,5.38461052 L15.65344,5.38461052 L15.65344,6.49402563 L14.9227881,6.49402563 L14.9227881,7.22089829 L15.65344,7.22089829 L15.65344,8.83127186 C15.65344,9.31837313 15.7687066,9.67719039 15.9996598,9.90814358 C16.230403,10.1388868 16.5535275,10.2541534 16.9692433,10.2541534 C17.2012462,10.2541534 17.409734,10.2184607 17.5947065,10.1470751 C17.7169017,10.1000447 17.8302787,10.0460856 17.9363072,9.9864577 L17.6629426,9.31711338 C17.5856783,9.358475 17.5044248,9.39563746 17.4187621,9.42797091" id="Fill-20" fill="#FEFEFE" opacity="0.699999988"></path>
                    <path d="M24.6367,6.39836902 C24.4122555,6.39836902 24.2096466,6.43910077 24.0284533,6.52077421 C23.8472601,6.60244766 23.6956708,6.79896782 23.5732656,6.97491216 L23.5732656,6.49410962 L22.8474427,6.49410962 L22.8474427,10.1584968 L23.581034,10.1584968 L23.581034,8.14269544 C23.581034,7.98711698 23.6026596,7.84812515 23.6459109,7.72571996 C23.6893721,7.60331478 23.7492099,7.50001571 23.8258444,7.41582278 C23.9022689,7.3318398 23.9940203,7.26801274 24.1010986,7.22455155 C24.2081769,7.18130032 24.3255431,7.1596747 24.4529873,7.1596747 C24.5499876,7.1596747 24.6545464,7.17101241 24.7666637,7.19410772 C24.8239821,7.20565538 24.8775212,7.22014245 24.9272811,7.237149 L25.1636932,6.47227404 C25.0996562,6.45211813 25.0345694,6.4344817 24.967593,6.423144 C24.8693329,6.40676732 24.7591052,6.39836902 24.6367,6.39836902" id="Fill-22" fill="#FEFEFE" opacity="0.699999988"></path>
                    <path d="M35.7503562,6.39836902 C35.5259117,6.39836902 35.3233028,6.43910077 35.1421095,6.52077421 C34.9609163,6.60244766 34.809327,6.79896782 34.6869218,6.97491216 L34.6869218,6.49410962 L33.9610989,6.49410962 L33.9610989,10.1584968 L34.6946902,10.1584968 L34.6946902,8.14269544 C34.6946902,7.98711698 34.7163159,7.84812515 34.7595671,7.72571996 C34.8030283,7.60331478 34.8628661,7.50001571 34.9395006,7.41582278 C35.0159251,7.3318398 35.1076765,7.26801274 35.2147548,7.22455155 C35.3218331,7.18130032 35.4391993,7.1596747 35.5666435,7.1596747 C35.6636438,7.1596747 35.7682026,7.17101241 35.8803199,7.19410772 C35.9376383,7.20565538 35.9911774,7.22014245 36.0409373,7.237149 L36.2773494,6.47227404 C36.2133124,6.45211813 36.1482256,6.4344817 36.0812492,6.423144 C35.9829891,6.40676732 35.8727614,6.39836902 35.7503562,6.39836902" id="Fill-24" fill="#FEFEFE" opacity="0.699999988"></path>
                    <path d="M39.4539215,8.79297563 C39.4003824,8.93574669 39.3250077,9.05941162 39.2282173,9.16397042 C39.1312169,9.26852923 39.0153204,9.35083255 38.8801078,9.41067042 C38.7448952,9.47071824 38.5945657,9.5005322 38.4286993,9.5005322 C38.2552745,9.5005322 38.1003259,9.4694585 37.9640635,9.40689118 C37.8275912,9.34453382 37.7121146,9.26034089 37.6178437,9.15452234 C37.5233629,9.04870379 37.4507176,8.92440898 37.3996979,8.78142797 C37.3486783,8.63865691 37.3232734,8.48706764 37.3232734,8.32624024 C37.3232734,8.16562279 37.3486783,8.01403352 37.3996979,7.8710525 C37.4507176,7.72828144 37.5233629,7.60398664 37.6178437,7.49816809 C37.7121146,7.39234954 37.8275912,7.30815661 37.9640635,7.24558929 C38.1003259,7.18323193 38.2552745,7.15194827 38.4286993,7.15194827 C38.5945657,7.15194827 38.7448952,7.18197218 38.8801078,7.24181005 C39.0153204,7.30185788 39.1312169,7.38395124 39.2282173,7.48851005 C39.3250077,7.59327881 39.4003824,7.71673379 39.4539215,7.8597148 C39.5074607,8.00248586 39.5343352,8.15806433 39.5343352,8.32624024 C39.5343352,8.4946261 39.5074607,8.65020457 39.4539215,8.79297563 L39.4539215,8.79297563 Z M39.4845753,5.00450357 L39.4845753,6.93779168 C39.3569212,6.77465475 39.1988232,6.64385126 39.0102814,6.54559118 C38.8215297,6.44754106 38.5956155,6.39841101 38.3331687,6.39841101 C38.0755509,6.39841101 37.8357795,6.44628131 37.6140645,6.54181195 C37.3921395,6.63734258 37.1983487,6.77066556 37.0324824,6.94157091 C36.8668259,7.11247627 36.7366523,7.31592503 36.6423814,7.55170724 C36.5479006,7.78748944 36.5008701,8.04573709 36.5008701,8.32624024 C36.5008701,8.60695333 36.5479006,8.86499103 36.6423814,9.10098319 C36.7366523,9.3367654 36.8668259,9.54021416 37.0324824,9.71111951 C37.1983487,9.88181491 37.3921395,10.0151379 37.6140645,10.1108785 C37.8357795,10.2064091 38.0755509,10.2542794 38.3331687,10.2542794 C38.5956155,10.2542794 38.8215297,10.2057792 39.0102814,10.1087789 C39.1988232,10.0119885 39.3569212,9.88181491 39.4845753,9.71867798 L39.4845753,10.1585388 L40.2840932,10.1585388 L40.2840932,5.00450357 L39.4845753,5.00450357 Z" id="Fill-26" fill="#FEFEFE" opacity="0.699999988"></path>
                    <path d="M26.5500212,7.47901997 C26.6518506,7.37572091 26.773206,7.29530721 26.9134575,7.23798883 C27.0537091,7.18067045 27.2055083,7.15190628 27.3686453,7.15190628 L27.3686453,7.15190628 C27.5481589,7.15190628 27.715075,7.18067045 27.8693938,7.23798883 C28.0184635,7.29341759 28.1475874,7.37089189 28.2573951,7.46915197 L28.6422471,6.82920169 C28.4980063,6.7137251 28.3354993,6.61924425 28.1547259,6.54575915 C27.9136948,6.44749906 27.6516679,6.39836902 27.3686453,6.39836902 C27.0854127,6.39836902 26.8235957,6.44749906 26.5825646,6.54575915 C26.3415335,6.64380927 26.1336756,6.77902186 25.958991,6.95118696 C25.7843064,7.12335207 25.6472042,7.32659087 25.5478943,7.56132329 C25.4483745,7.79584575 25.3986146,8.05094404 25.3986146,8.32619824 C25.3986146,8.60166241 25.4483745,8.8567607 25.5478943,9.09128316 C25.6472042,9.32601558 25.7843064,9.52925438 25.958991,9.70141948 C26.1336756,9.87358458 26.3415335,10.0087972 26.5825646,10.1068473 C26.8235957,10.2051074 27.0854127,10.2542374 27.3686453,10.2542374 C27.6516679,10.2542374 27.9136948,10.2051074 28.1547259,10.1068473 C28.3354993,10.0333622 28.4980063,9.93888135 28.6422471,9.82340475 L28.2573951,9.18345447 C28.1475874,9.28171456 28.0184635,9.35918885 27.8693938,9.41461762 C27.715075,9.471936 27.5481589,9.50070017 27.3686453,9.50070017 L27.3686453,9.50070017 C27.2055083,9.50070017 27.0537091,9.471936 26.9134575,9.41461762 C26.773206,9.35729924 26.6518506,9.27688554 26.5500212,9.17358647 C26.4479819,9.07028741 26.3675682,8.94662248 26.3089901,8.80259168 C26.250202,8.65856087 26.2210179,8.49983305 26.2210179,8.32619824 C26.2210179,8.15298336 26.250202,7.99425553 26.3089901,7.85001477 C26.3675682,7.70598396 26.4479819,7.58231903 26.5500212,7.47901997" id="Fill-28" fill="#FEFEFE" opacity="0.699999988"></path>
                    <path d="M41.2456353,10.0240191 L41.2456353,10.0697898 L41.2983347,10.0697898 C41.3090425,10.0697898 41.3174408,10.0681102 41.3233196,10.0647508 C41.3291984,10.0613915 41.3321378,10.0555127 41.3321378,10.0471144 C41.3321378,10.039346 41.3291984,10.0334672 41.3233196,10.0296879 C41.3174408,10.0259087 41.3090425,10.0240191 41.2983347,10.0240191 L41.2456353,10.0240191 Z M41.2995944,9.96334139 C41.3338175,9.96334139 41.3596422,9.97089986 41.3774886,9.98622675 C41.395125,10.0013437 41.4041532,10.0217096 41.4041532,10.0471144 C41.4041532,10.0672703 41.3976445,10.083857 41.3850471,10.0970843 C41.3722397,10.1101016 41.3537634,10.1189199 41.3296183,10.122909 L41.4073026,10.2125609 L41.3233196,10.2125609 L41.2538237,10.1254285 L41.2456353,10.1254285 L41.2456353,10.2125609 L41.1755095,10.2125609 L41.1755095,9.96334139 L41.2995944,9.96334139 Z M41.2832177,10.2915049 C41.3111421,10.2915049 41.3375967,10.286046 41.3621617,10.2755481 C41.3867267,10.2648403 41.4081424,10.2503532 41.4264087,10.231877 C41.444465,10.2136107 41.4587421,10.192195 41.46924,10.16742 C41.4797379,10.142855 41.4849868,10.1164004 41.4849868,10.0878462 C41.4849868,10.0599218 41.4797379,10.0334672 41.46924,10.0086922 C41.4587421,9.98391722 41.444465,9.9622916 41.4264087,9.94423526 C41.4081424,9.92596896 41.3867267,9.91169186 41.3621617,9.90098403 C41.3375967,9.8902762 41.3111421,9.88502726 41.2832177,9.88502726 C41.2544535,9.88502726 41.227579,9.8902762 41.202804,9.90098403 C41.1778191,9.91169186 41.1561935,9.92596896 41.1379272,9.94423526 C41.1194509,9.9622916 41.1051738,9.98391722 41.0946759,10.0086922 C41.0841781,10.0334672 41.0789291,10.0599218 41.0789291,10.0878462 C41.0789291,10.1164004 41.0841781,10.142855 41.0946759,10.16742 C41.1051738,10.192195 41.1194509,10.2136107 41.1379272,10.231877 C41.1561935,10.2503532 41.1778191,10.2648403 41.202804,10.2755481 C41.227579,10.286046 41.2544535,10.2915049 41.2832177,10.2915049 L41.2832177,10.2915049 Z M41.2832177,9.80671314 C41.3233196,9.80671314 41.360902,9.81406165 41.3959649,9.82896863 C41.4310278,9.84366565 41.4616815,9.86382156 41.4877163,9.88943637 C41.513751,9.91484122 41.5343268,9.94465518 41.5494437,9.97866828 C41.5643507,10.0126814 41.5719092,10.049004 41.5719092,10.0878462 C41.5719092,10.1262684 41.5643507,10.162591 41.5494437,10.1968141 C41.5343268,10.2310371 41.513751,10.261061 41.4877163,10.2866758 C41.4616815,10.3125006 41.4310278,10.3326565 41.3959649,10.3475635 C41.360902,10.3622605 41.3233196,10.369819 41.2832177,10.369819 C41.242276,10.369819 41.2040638,10.3622605 41.168581,10.3475635 C41.1330981,10.3326565 41.1022344,10.3125006 41.0761997,10.2866758 C41.050165,10.261061 41.0295891,10.2310371 41.0148921,10.1968141 C40.9999851,10.162591 40.9926366,10.1262684 40.9926366,10.0878462 C40.9926366,10.049004 40.9999851,10.0126814 41.0148921,9.97866828 C41.0295891,9.94465518 41.050165,9.91484122 41.0761997,9.88943637 C41.1022344,9.86382156 41.1330981,9.84366565 41.168581,9.82896863 C41.2040638,9.81406165 41.242276,9.80671314 41.2832177,9.80671314 L41.2832177,9.80671314 Z" id="Fill-30" fill="#FEFEFE"></path>
                </g>
                <rect id="frame" stroke="#979797" opacity="0.300000012" x="174.647155" y="1.4175609" width="47" height="30" rx="4"></rect>
                <rect id="frame" stroke="#979797" opacity="0.300000012" x="116.647155" y="1.4856861" width="47" height="30" rx="4"></rect>
                <rect id="frame" stroke="#979797" opacity="0.300000012" x="58.6471547" y="1.4175609" width="47" height="30" rx="4"></rect>
                <rect id="frame" stroke="#979797" opacity="0.300000012" x="0.647154742" y="1.4175609" width="47" height="30" rx="4"></rect>
            </g>
        </g>
    </g>
</svg>