<?xml version="1.0" encoding="UTF-8" standalone="no"?>
<svg width="120px" height="30px" viewBox="0 0 120 30" version="1.1" xmlns="http://www.w3.org/2000/svg" xmlns:xlink="http://www.w3.org/1999/xlink">
    <!-- Generator: Sketch 3.8.3 (29802) - http://www.bohemiancoding.com/sketch -->
    <title>logo/full/white/120x30/logo</title>
    <desc>Created with Sketch.</desc>
    <defs>
        <polygon id="path-1" points="12.0408575 12.5756818 12.0408575 0.0346212121 0.0557326608 0.0346212121 0.0557326608 12.5756818"></polygon>
    </defs>
    <g id="Page-1" stroke="none" stroke-width="1" fill="none" fill-rule="evenodd">
        <g id="logo/full/white/120x30/logo">
            <g id="republic-logo-full-white" transform="translate(39.041614, 7.727273)" fill="#FFFFFF">
                <g id="Layer_1">
                    <g id="Group">
                        <path d="M5.06179067,0.657424242 C8.09962169,0.657424242 10.0931652,2.49787879 10.0931652,5.04621212 C10.0931652,7.49848485 8.72050441,8.97727273 7.16549811,9.30121212 L10.3800757,15.0812121 L7.19213115,15.0812121 L4.24191677,9.66712121 L2.95399748,9.66712121 L2.95399748,15.0812121 L0.0832282472,15.0812121 L0.0832282472,0.657424242 L5.06179067,0.657424242 L5.06179067,0.657424242 Z M2.95399748,3.30515152 L2.95399748,6.83893939 L5.01034048,6.83893939 C6.57427491,6.83893939 7.33770492,6.00909091 7.31697352,5.04606061 C7.33770492,4.04969697 6.53311475,3.305 5.01034048,3.305 L2.95399748,3.305 L2.95399748,3.30515152 Z" id="Shape"></path>
                        <path d="M21.6514502,10.0734848 C21.6514502,10.3827273 21.6308701,10.7540909 21.6,10.980303 L14.5310467,10.980303 C14.8191677,12.4228788 15.8275914,13.0509091 17.0931148,13.0509091 C17.9574779,13.0509091 18.8937201,12.7006061 19.6138714,12.0933333 L21.1882472,13.8239394 C20.0564943,14.8645455 18.615889,15.3380303 16.9387642,15.3380303 C13.8829256,15.3380303 11.7631778,13.2572727 11.7631778,10.115303 C11.7631778,6.97272727 13.8208827,4.83 16.804691,4.83 C19.6756116,4.83 21.6413115,6.96242424 21.6514502,10.0734848 L21.6514502,10.0734848 Z M14.541488,9.14681818 L18.9554603,9.14681818 C18.7086507,7.86924242 17.9368979,7.14818182 16.7844136,7.14818182 C15.5188903,7.14818182 14.7780076,7.91030303 14.541488,9.14681818 L14.541488,9.14681818 Z" id="Shape"></path>
                        <path d="M34.4310719,10.0839394 C34.4310719,13.0822727 32.3524842,15.3381818 29.6054981,15.3381818 C28.2676419,15.3381818 27.3211097,14.8130303 26.6729887,14.040303 L26.6729887,19.2019697 L23.9975788,19.2019697 L23.9975788,5.09757576 L26.6213871,5.09757576 L26.6213871,6.20030303 C27.2693569,5.38606061 28.2263304,4.83 29.5950567,4.83 C32.3524842,4.83 34.4310719,7.08590909 34.4310719,10.0839394 L34.4310719,10.0839394 Z M26.5392182,10.0839394 C26.5392182,11.660303 27.5782093,12.8348485 29.1012863,12.8348485 C30.6858008,12.8348485 31.6734931,11.6087879 31.6734931,10.0839394 C31.6734931,8.55939394 30.6858008,7.33333333 29.1012863,7.33333333 C27.5782093,7.33333333 26.5392182,8.5080303 26.5392182,10.0839394 L26.5392182,10.0839394 Z" id="Shape"></path>
                        <path d="M45.9003783,10.8260606 C45.9003783,13.9783333 43.6778815,15.3380303 41.1878436,15.3380303 C38.6875158,15.3380303 36.4650189,13.9781818 36.4650189,10.8260606 L36.4650189,5.09757576 L39.1504161,5.09757576 L39.1504161,10.5889394 C39.1504161,12.1859091 40.0252207,12.8348485 41.1878436,12.8348485 C42.3401765,12.8348485 43.2251198,12.1859091 43.2251198,10.5889394 L43.2251198,5.09757576 L45.9003783,5.09757576 L45.9003783,10.8260606 L45.9003783,10.8260606 Z" id="Shape"></path>
                        <path d="M58.9958134,10.0839394 C58.9958134,13.0822727 56.917377,15.3381818 54.1699369,15.3381818 C52.7910719,15.3381818 51.8340984,14.7822727 51.1859773,13.9783333 L51.1859773,15.0810606 L48.5623203,15.0810606 L48.5623203,0.245454545 L51.2374275,0.245454545 L51.2374275,6.13848485 C51.8858512,5.35530303 52.821942,4.83 54.1597982,4.83 C56.917377,4.83 58.9958134,7.08590909 58.9958134,10.0839394 L58.9958134,10.0839394 Z M51.1038083,10.0839394 C51.1038083,11.660303 52.1429508,12.8348485 53.6660277,12.8348485 C55.2505422,12.8348485 56.2383859,11.6087879 56.2383859,10.0839394 C56.2383859,8.55939394 55.2505422,7.33333333 53.6660277,7.33333333 C52.1429508,7.33333333 51.1038083,8.5080303 51.1038083,10.0839394 L51.1038083,10.0839394 Z" id="Shape"></path>
                        <polygon id="Shape" points="63.8710214 15.0810606 61.1854729 15.0810606 61.1854729 0.245454545 63.8710214 0.245454545"></polygon>
                        <path d="M69.7348298,1.83166667 C69.7348298,2.80015152 68.9835057,3.54227273 68.0165448,3.54227273 C67.0492812,3.54227273 66.3083985,2.80015152 66.3083985,1.83166667 C66.3083985,0.863636364 67.0492812,0.100909091 68.0165448,0.100909091 C68.9835057,0.100909091 69.7348298,0.863636364 69.7348298,1.83166667 L69.7348298,1.83166667 Z M69.3746784,15.0810606 L66.6891299,15.0810606 L66.6891299,5.09757576 L69.3746784,5.09757576 L69.3746784,15.0810606 L69.3746784,15.0810606 Z" id="Shape"></path>
                        <path d="M80.8768222,6.715 L78.9425977,8.33257576 C78.3356368,7.68348485 77.6872131,7.33318182 76.8127112,7.33318182 C75.4235561,7.33318182 74.312232,8.42515152 74.312232,10.0837879 C74.312232,11.7533333 75.4132661,12.834697 76.8025725,12.834697 C77.6667844,12.834697 78.4075158,12.4434848 78.9736192,11.825303 L80.8872636,13.4633333 C79.9510214,14.6684848 78.5515763,15.3380303 76.8847415,15.3380303 C73.7052711,15.3380303 71.5753846,13.1130303 71.5753846,10.0837879 C71.5753846,7.06530303 73.7052711,4.82984848 76.8847415,4.82984848 C78.5515763,4.83 79.9613115,5.51 80.8768222,6.715 L80.8768222,6.715 Z" id="Shape"></path>
                    </g>
                </g>
            </g>
            <path d="M14.5828676,17.2319545 L7.96004035,17.2319545 L0.339638948,29.2398764 L7.95989177,17.2283335 L7.96233661,17.2283333 L7.96004035,17.2319545 L14.5828676,17.2319545 L18.4974477,17.2319545 L13.2656689,9.09625521 L18.4990517,17.231 C21.5264414,15.7711515 23.616227,12.6673636 23.616227,9.07433333 C23.616227,4.46630303 20.1789004,0.66569697 15.7351173,0.102515152 C15.1664414,0.027969697 14.223087,0.000393939394 13.9703758,0.000393939394 L7.41501639,0.000242424242 L10.0287262,4.06462595 L7.4148802,0 L0,0 L0,17.2289394 L3.18011181,17.2286973 L0,17.229 L0,29.7730909 L0.00136191677,29.7730909 L0.339638948,29.2398764 L0.00130138714,29.7730152 L16.6974704,29.7730152 L26.5680151,29.7730152 L18.4974477,17.2319545 L14.5828676,17.2319545 Z M13.1752848,9.0074941 L13.191768,8.9815 L13.1918134,8.98145455 L13.2656689,9.09625521 Z" id="Combined-Shape" fill="#1460FA"></path>
            <g id="Group-2">
                <g id="Page-1">
                    <polygon id="Fill-1" stroke="#1560FA" stroke-width="0.001" fill="#1460FA" points="0 0.151454545 0 17.3803939 7.96237074 17.3797879 13.1912232 9.13387879 7.4148802 0.151454545"></polygon>
                    <polygon id="Fill-2" fill="#147EFF" points="0 17.3804545 0 29.9245455 0.00136191677 29.9245455 7.95994956 17.379697"></polygon>
                    <g id="Group-14" transform="translate(0.000000, 0.076061)">
                        <path d="M13.1912081,9.05775758 L13.1326456,9.15018182 L13.1918134,9.05684848 L18.4990517,17.3063939 C21.5264414,15.8465455 23.616227,12.7427576 23.616227,9.14972727 C23.616227,4.54169697 20.1789004,0.741090909 15.7351173,0.177909091 C15.1664414,0.103363636 14.223087,0.0757878788 13.9703758,0.0757878788 L7.41501639,0.0756363636 L13.1912081,9.05775758 Z" id="Fill-3" fill="#147EFF"></path>
                        <g id="Group-7" transform="translate(14.527112, 17.272727)">
                            <mask id="mask-2" fill="white">
                                <use xlink:href="#path-1"></use>
                            </mask>
                            <g id="Clip-6"></g>
                            <polygon id="Fill-5" fill="#009BFF" mask="url(#mask-2)" points="3.97033544 0.0346212121 0.0557326608 0.0346212121 2.17033544 12.5756818 12.0409029 12.5756818"></polygon>
                        </g>
                        <polygon id="Fill-8" fill="#00B6F8" points="18.4974477 17.3073485 13.1918739 9.05689394 14.5828449 17.3073485"></polygon>
                        <polygon id="Fill-10" fill="#00BDFF" points="7.96004035 17.3073485 0.00130138714 29.8484091 16.6974931 29.8484091 14.5828903 17.3073485"></polygon>
                        <polygon id="Fill-12" fill="#00EFE9" points="7.96004035 17.3073485 14.5828903 17.3073485 13.191768 9.05689394"></polygon>
                    </g>
                </g>
            </g>
        </g>
    </g>
</svg>