<?xml version="1.0" standalone="no"?>
<!DOCTYPE svg PUBLIC "-//W3C//DTD SVG 20010904//EN"
 "http://www.w3.org/TR/2001/REC-SVG-20010904/DTD/svg10.dtd">
<svg version="1.0" xmlns="http://www.w3.org/2000/svg"
 width="400.000000pt" height="400.000000pt" viewBox="0 0 400.000000 400.000000"
 preserveAspectRatio="xMidYMid meet">

<g transform="translate(0.000000,400.000000) scale(0.100000,-0.100000)"
fill="#000000" stroke="none">
<path d="M1864 3328 c-27 -18 -62 -52 -79 -76 -25 -36 -30 -55 -33 -116 -6
-113 38 -194 131 -241 203 -101 441 122 340 319 -54 106 -117 146 -232 146
-72 0 -83 -3 -127 -32z"/>
<path d="M1000 3098 c-94 -57 -128 -173 -80 -272 12 -26 155 -179 380 -409
198 -202 360 -371 360 -376 0 -5 -164 -176 -364 -380 -201 -203 -372 -383
-380 -400 -22 -42 -20 -136 3 -188 34 -73 141 -132 218 -120 18 3 54 20 80 38
26 18 209 192 406 388 l358 355 297 -295 c531 -528 528 -526 668 -460 87 41
108 74 113 179 3 77 1 86 -25 125 -15 23 -184 200 -376 393 -191 193 -348 358
-348 367 0 9 162 182 361 383 214 217 367 380 375 400 23 54 17 161 -10 209
-45 79 -170 117 -261 79 -26 -11 -157 -133 -406 -380 -202 -200 -375 -364
-385 -364 -9 0 -180 162 -381 361 -252 249 -377 366 -406 380 -66 30 -133 25
-197 -13z"/>
<path d="M863 2285 c-130 -40 -183 -111 -183 -244 0 -68 3 -82 30 -124 31 -49
102 -107 131 -107 10 0 21 -4 24 -10 10 -17 81 -11 139 10 30 12 72 38 94 59
51 50 86 139 77 196 -14 95 -88 187 -172 216 -58 21 -85 22 -140 4z"/>
<path d="M3005 2286 c-120 -38 -170 -100 -182 -221 -8 -84 12 -136 74 -198 61
-61 128 -83 210 -67 31 5 67 17 80 26 54 35 102 96 122 155 l20 61 -21 65
c-28 83 -83 142 -162 172 -64 24 -84 25 -141 7z"/>
<path d="M1890 1199 c-115 -46 -176 -203 -125 -327 59 -145 265 -197 383 -96
47 40 102 142 102 190 0 81 -72 195 -147 233 -27 13 -179 13 -213 0z"/>
</g>
</svg>
