<svg xmlns="http://www.w3.org/2000/svg" xmlns:xlink="http://www.w3.org/1999/xlink" width="0" height="0" style="position:absolute">
	
		<symbol id="svg-cross" viewBox="">
			<path d="M3.5.5v6m3-3h-6"></path>
		</symbol>
	
		<symbol id="svg-email" viewBox="0 0 25 18">
			<path d="M5.264 17.623h-2.78c-1.168 0-2.113-.96-2.113-2.146V2.523c0-1.186.945-2.146 2.113-2.146h20.032c1.168 0 2.113.96 2.113 2.146v12.949c0 1.186-.945 2.146-2.113 2.146h-11.79" stroke="#fff" stroke-width="1.5" stroke-miterlimit="10" stroke-linecap="round"></path>
		</symbol>
	
		<symbol id="svg-phone" viewBox="0 0 27 26">
			<path d="M8.158 17.642c.477.448.955.862 1.418 1.24 2.583 2.098 4.837 3.145 4.837 3.145 2.327 1.106 3.848 1.83 5.925 1.572.288-.037 3.455-.48 4.767-2.85.111-.198.932-1.719.338-2.673-.143-.226-.524-.37-1.09-.65-.574-.282-3.375-1.646-3.899-1.83-.524-.194-.904-.282-1.284.28-.38.563-1.48 1.83-1.808 2.2-.339.378-.663.424-1.243.143-.566-.282-2.407-.867-4.586-2.794-1.688-1.485-2.842-3.324-3.167-3.887-.324-.562-.032-.866.25-1.148.26-.258.566-.659.858-.986.08-.097.14-.185.21-.272.129-.208.226-.401.356-.673.195-.378.098-.706-.042-.987-.143-.281-1.284-3.052-1.762-4.177-.245-.59-.496-.82-.723-.899a1.081 1.081 0 0 0-.561-.032C4.059 2.913 2.96 4.9 2.96 4.9c-.622 1.12-.612 2.208-.612 2.816 0 .65.12 1.3.292 1.918.575 1.983 1.817 3.615 2.035 3.896.065.083.292.438.682.968" stroke="#0056FF" stroke-width="1.5" stroke-miterlimit="10" stroke-linecap="round"></path>
		</symbol>
	
		<symbol id="svg-rotate-desktop" viewBox="0 0 22 22">
			<path d="M.088 0L0 7.111l2.584-.09v-2.7L7.218 9 9 7.2 4.367 2.52H7.04V0zM13 14.8l4.632 4.679H14.96V22h6.951L22 14.89l-2.586.089v2.701L14.782 13zM2.52 17.633V14.96H0v6.952L7.11 22l-.089-2.585h-2.7L9 14.781 7.2 13zM14.89 0l.089 2.583h2.7L13 7.218 14.8 9l4.679-4.634v2.673H22V.088z" fill-rule="evenodd"></path>
		</symbol>
	
		<symbol id="svg-rotate-mobile" viewBox="0 0 62 25">
			<path d="M49 0h13v25H49zM0 6h25v13H0zm35.5 10.036l-.707-.708L37.62 12.5l-2.828-2.828.707-.708 3.536 3.536-3.536 3.536z" fill-rule="evenodd"></path>
		</symbol>
	
		<symbol id="svg-social-network-email" viewBox="0 0 16 11">
			<path d="M0 2l7.937 4.452L16 2v9H0V2zm7.937 2L0 0h16L7.937 4z" fill="#000" fill-rule="evenodd"></path>
		</symbol>
	
		<symbol id="svg-social-network-facebook" viewBox="0 0 11 19.8">
			<path d="M11 3.44H7.86c-.37 0-.79.49-.79 1.14v2.27H11v3.23H7.07v9.72H3.36v-9.71H0V6.85h3.36V5a4.67 4.67 0 0 1 4.5-5H11v3.44"></path>
		</symbol>
	
		<symbol id="svg-social-network-instagram" viewBox="0 0 16 16">
			<path fill-rule="evenodd" d="M9.9 0c.011.002.022.006.032.007.338.008.676.015 1.014.026.352.01.703.028 1.053.074.417.056.826.15 1.219.303 1.086.425 1.861 1.173 2.32 2.245.25.586.368 1.204.4 1.837.029.553.037 1.106.055 1.66 0 .013.005.026.007.04v3.617c-.002.01-.006.02-.007.031-.008.36-.011.72-.027 1.08-.014.335-.034.67-.067 1.003a4.887 4.887 0 0 1-.333 1.352 4.017 4.017 0 0 1-2.141 2.228c-.609.275-1.255.401-1.917.435-.552.029-1.104.037-1.656.055-.012 0-.023.005-.035.007H6.183c-.01-.002-.02-.006-.031-.007l-1.268-.034a7.917 7.917 0 0 1-1.2-.117 4.628 4.628 0 0 1-1.405-.483A4.022 4.022 0 0 1 .442 13.3a5.486 5.486 0 0 1-.381-1.782c-.027-.475-.036-.95-.053-1.426L0 9.901V6.099c.002-.01.006-.02.007-.031.006-.263.009-.526.017-.789.013-.404.026-.81.075-1.212.052-.425.143-.84.295-1.242.396-1.05 1.1-1.82 2.116-2.3C3.136.23 3.804.1 4.49.06c.475-.026.95-.035 1.423-.052L6.1 0h3.802zM8.004 3.892a4.108 4.108 0 1 0 4.105 4.143 4.106 4.106 0 0 0-4.105-4.143zm.04 1.442a2.666 2.666 0 0 1-.06 5.332 2.667 2.667 0 0 1 .06-5.332zm4.227-2.567a.962.962 0 0 0-.005 1.922.962.962 0 0 0 .005-1.922z"></path>
		</symbol>
	
		<symbol id="svg-social-network-linkedin" viewBox="0 0 20 19.72">
			<path d="M4.53 2.14a2.13 2.13 0 0 1-2.31 2.14A2.11 2.11 0 0 1 0 2.14 2.12 2.12 0 0 1 2.28 0a2.11 2.11 0 0 1 2.25 2.14M.11 6h4.28v13.72H.11zM6.95 10.35c0-1.72-.06-3.15-.11-4.39h3.71l.2 1.91h.08a4.94 4.94 0 0 1 4.25-2.22c2.81 0 4.92 1.88 4.92 5.94v8.13h-4.28V12.1c0-1.77-.62-3-2.17-3a2.35 2.35 0 0 0-2.19 1.6 3.07 3.07 0 0 0-.14 1.07v7.93H6.95v-9.35"></path>
		</symbol>
	
		<symbol id="svg-social-network-pinterest" viewBox="0 0 14.6 19.2">
			<path d="M12.5 2C10-.7 5.8-.5 3 1.6.6 3.4-1.1 7.4.9 10.1c.4.5 1 .9 1.7 1 .2.1.4 0 .4-.2.2-.3.3-.7.3-1.1 0-.1-.1-.2-.2-.2-1.8-2-.6-4.5 1.2-6.1C5.9 2.1 8.8.8 10.6 2.4c1.3 1.1 1.4 3.1 1.3 4.7-.1 1.9-.8 4-2.8 4.6-.7.3-1.4.1-1.9-.5-.3-.7-.4-1.5-.1-2.2.3-1.1 1-2.7.3-3.8-.7-1.3-2.3-.1-2.8.8-.3.6-.8 2.3 0 2.8-.8 2-1.4 4.1-1.7 6.2-.2 1-.3 1.9-.1 2.9.1.4.2.7.4 1 0 .2.2.2.3.1.8-.9 1.4-1.9 1.9-3 .2-.6.3-1.3.4-1.9.1-.4.3-1 .3-1.4.7.5 1.4.8 2.2 1 1.2.2 2.5-.1 3.5-.9.2-.1.3-.2.4-.4.5-.3.9-.7 1.2-1.1 2-2.7 1.4-6.9-.9-9.3zm-9.9 8v.1-.1zM1.4 4.6c-.2.3-.3.7-.5 1 .1-.4.3-.7.5-1zm11.2-1.4l-.1-.1V3c.1.2.2.3.3.5l-.2-.3z"></path>
		</symbol>
	
		<symbol id="svg-social-network-twitter" viewBox="0 0 21 17.07">
			<path d="M21 2a8.6 8.6 0 0 1-2.47.68A4.32 4.32 0 0 0 20.42.32a8.62 8.62 0 0 1-2.74 1 4.31 4.31 0 0 0-7.45 2.95 4.21 4.21 0 0 0 .11 1A12.23 12.23 0 0 1 1.46.79a4.32 4.32 0 0 0 1.33 5.75A4.32 4.32 0 0 1 .84 6v.05a4.31 4.31 0 0 0 3.46 4.23 4.32 4.32 0 0 1-1.13.15 4.12 4.12 0 0 1-.81-.08 4.31 4.31 0 0 0 4 3A8.63 8.63 0 0 1 1 15.19a9 9 0 0 1-1-.06 12.2 12.2 0 0 0 6.6 1.94A12.18 12.18 0 0 0 18.86 4.81v-.56A8.72 8.72 0 0 0 21 2"></path>
		</symbol>
	
		<symbol id="svg-social-network-youtube" viewBox="0 0 500.2 350.2">
			<path d="M489.7 54.7c-5.8-21.5-22.7-38.5-44.2-44.2C406.5 0 250.1 0 250.1 0S93.7 0 54.7 10.5c-21.5 5.8-38.5 22.7-44.2 44.2C0 93.7 0 175.1 0 175.1s0 81.4 10.5 120.4c5.8 21.5 22.7 38.5 44.2 44.2 39 10.5 195.4 10.5 195.4 10.5s156.4 0 195.4-10.5c21.5-5.8 38.5-22.7 44.2-44.2 10.5-39 10.5-120.4 10.5-120.4s0-81.4-10.5-120.4zM200.1 250.1v-150l129.9 75-129.9 75z"></path>
		</symbol>
	
</svg>
